<svg xmlns="http://www.w3.org/2000/svg" viewBox="0 0 256 256"><rect x="9.5" y="9.5" width="236.0" height="236.0" rx="44.3" fill="#6D28D9"/><rect x="49.5" y="64.5" width="156.2" height="95.2" rx="24.0" fill="#FFFFFF"/><polygon points="79.50,140.00 79.50,199.80 113.00,159.70" fill="#FFFFFF"/><circle cx="89.7" cy="117.1" r="10.65" fill="#6D28D9"/><circle cx="127.7" cy="117.1" r="10.65" fill="#6D28D9"/><circle cx="165.7" cy="117.1" r="10.65" fill="#6D28D9"/><polygon points="245.50,130.68 245.50,190.08 190.08,245.50 130.68,245.50" fill="#0D0D15"/><polygon points="160.36,227.13 170.29,217.20 178.75,217.20 188.68,227.13 188.68,235.59 178.75,245.51" fill="#F4F4F5"/><polygon points="167.35,227.13 172.39,222.09 176.65,222.09 183.79,229.23 183.79,233.49 178.75,238.53" fill="#0D0D15"/><polygon points="177.35,210.15 189.48,198.01 192.98,201.50 180.84,213.64" fill="#F4F4F5"/><polygon points="184.80,217.59 194.75,207.64 198.24,211.13 188.29,221.08" fill="#F4F4F5"/><polygon points="192.24,225.04 204.38,212.90 207.87,216.40 195.73,228.53" fill="#F4F4F5"/><polygon points="177.35,210.15 180.84,206.65 199.23,225.04 195.73,228.53" fill="#F4F4F5"/><polygon points="192.31,195.18 196.50,190.99 209.41,195.00 205.40,182.09 209.59,177.90 227.98,196.29 224.49,199.78 212.72,188.01 216.48,198.23 212.64,202.07 202.42,198.31 214.19,210.07 210.70,213.57" fill="#F4F4F5"/><polygon points="216.65,170.84 222.90,164.59 231.36,164.59 241.29,174.52 241.29,182.98 235.04,189.23 226.58,189.23 216.65,179.30" fill="#F4F4F5"/><polygon points="221.54,172.94 225.00,169.48 229.26,169.48 236.40,176.62 236.40,180.88 232.94,184.34 228.67,184.34 221.54,177.21" fill="#0D0D15"/></svg>