<!-- SPDX-License-Identifier: CC0-1.0 -->
<!-- Screenshot placeholder: Conversation screen — mid-session with NPC state meters and event banner.
     Licensed CC0-1.0. No real people or private data. Fictional NPC: Victor Hargrove. -->
<svg xmlns="http://www.w3.org/2000/svg" width="900" height="620" viewBox="0 0 900 620">
  <rect width="900" height="620" fill="#09090b" rx="8"/>
  <rect x="1" y="1" width="898" height="618" fill="none" stroke="#27272a" stroke-width="1" rx="8"/>

  <!-- App header -->
  <rect x="0" y="0" width="900" height="44" fill="#18181b" rx="8"/>
  <rect x="0" y="30" width="900" height="14" fill="#18181b"/>
  <line x1="0" y1="44" x2="900" y2="44" stroke="#27272a" stroke-width="1"/>
  <text x="20" y="28" font-family="system-ui,sans-serif" font-size="13" font-weight="700" fill="#e8e8ea">Conversation Simulator</text>
  <text x="218" y="26" font-family="system-ui,sans-serif" font-size="12" fill="#71717a">Home</text>
  <rect x="252" y="10" width="78" height="24" rx="4" fill="#252528"/>
  <text x="291" y="26" font-family="system-ui,sans-serif" font-size="12" font-weight="600" fill="#e8e8ea" text-anchor="middle">Scenarios</text>
  <text x="348" y="26" font-family="system-ui,sans-serif" font-size="12" fill="#71717a">Workbench</text>
  <text x="438" y="26" font-family="system-ui,sans-serif" font-size="12" fill="#71717a">Settings</text>

  <!-- Page header -->
  <text x="32" y="80" font-family="system-ui,sans-serif" font-size="20" font-weight="700" fill="#f4f4f5">Conversation</text>
  <text x="32" y="96" font-family="system-ui,sans-serif" font-size="10" fill="#71717a">Session: d4f9a2c1  ·  State: PlayerTurnListening</text>
  <!-- End session button -->
  <rect x="796" y="66" width="88" height="30" rx="6" fill="#18181b" stroke="#52525b" stroke-width="1"/>
  <text x="840" y="85" font-family="system-ui,sans-serif" font-size="12" fill="#f4f4f5" text-anchor="middle">End session</text>

  <!-- NPC panel -->
  <rect x="32" y="110" width="190" height="56" rx="6" fill="#18181b" stroke="#27272a" stroke-width="1"/>
  <circle cx="64" cy="138" r="18" fill="#27272a" stroke="#3f3f46" stroke-width="1.5"/>
  <circle cx="64" cy="132" r="7" fill="#52525b"/>
  <path d="M49 152 Q49 142 64 142 Q79 142 79 152" fill="#52525b"/>
  <text x="90" y="128" font-family="system-ui,sans-serif" font-size="12" font-weight="600" fill="#e4e4e7">Victor Hargrove</text>
  <text x="90" y="142" font-family="system-ui,sans-serif" font-size="10" fill="#6ee7b7">skeptical</text>
  <text x="90" y="156" font-family="system-ui,sans-serif" font-size="10" fill="#71717a">Listening</text>

  <!-- Scene card -->
  <rect x="232" y="110" width="636" height="56" rx="6" fill="#18181b" stroke="#27272a" stroke-width="1"/>
  <text x="248" y="130" font-family="system-ui,sans-serif" font-size="12" font-weight="600" fill="#e4e4e7">The Executive Gauntlet</text>
  <text x="248" y="146" font-family="system-ui,sans-serif" font-size="11" fill="#71717a">You are interviewing for a senior engineering role. Victor has a reputation for stress-testing</text>
  <text x="248" y="160" font-family="system-ui,sans-serif" font-size="11" fill="#71717a">candidates. Objective: earn his grudging respect.</text>

  <!-- Event banner -->
  <rect x="32" y="176" width="836" height="28" rx="4" fill="#1c0a00" stroke="#451a03" stroke-width="1"/>
  <text x="46" y="194" font-family="system-ui,sans-serif" font-size="11" fill="#fbbf24">Scenario event:  grudging_respect  triggered  ·  Turn 4</text>
  <text x="862" y="194" font-family="system-ui,sans-serif" font-size="13" fill="#fbbf24" text-anchor="end">×</text>

  <!-- Transcript area -->
  <rect x="32" y="214" width="836" height="240" rx="6" fill="#0c0a09" stroke="#27272a" stroke-width="1"/>

  <!-- Turn 2 · NPC -->
  <text x="46" y="234" font-family="system-ui,sans-serif" font-size="10" fill="#6ee7b7" letter-spacing="0.05em">TURN 2  ·  NPC</text>
  <rect x="46" y="240" width="804" height="30" rx="4" fill="#052e16"/>
  <text x="58" y="259" font-family="system-ui,sans-serif" font-size="12" fill="#f4f4f5">"What's the biggest technical project you've led in the past year? Give me specifics."</text>

  <!-- Turn 3 · Player -->
  <text x="46" y="284" font-family="system-ui,sans-serif" font-size="10" fill="#a78bfa" letter-spacing="0.05em">TURN 3  ·  YOU</text>
  <rect x="46" y="290" width="804" height="42" rx="4" fill="#1e1b4b"/>
  <text x="58" y="308" font-family="system-ui,sans-serif" font-size="12" fill="#f4f4f5">"I led the data platform redesign — cut nightly processing from four hours to forty minutes.</text>
  <text x="58" y="324" font-family="system-ui,sans-serif" font-size="12" fill="#f4f4f5">We moved from monolithic batch jobs to an event-driven pipeline."</text>

  <!-- Turn 4 · NPC (skeptical) -->
  <text x="46" y="348" font-family="system-ui,sans-serif" font-size="10" fill="#6ee7b7" letter-spacing="0.05em">TURN 4  ·  NPC  (skeptical)</text>
  <rect x="46" y="354" width="804" height="42" rx="4" fill="#052e16"/>
  <text x="58" y="372" font-family="system-ui,sans-serif" font-size="12" fill="#f4f4f5">"That's a headline number. Walk me through the specific trade-off you made to get there.</text>
  <text x="58" y="388" font-family="system-ui,sans-serif" font-size="12" fill="#f4f4f5">What did you give up, and was it the right call in hindsight?"</text>

  <!-- Streaming Turn 5 -->
  <text x="46" y="412" font-family="system-ui,sans-serif" font-size="10" fill="#6ee7b7" letter-spacing="0.05em">TURN 5  ·  NPC  ·  Responding…</text>
  <rect x="46" y="418" width="804" height="28" rx="4" fill="#052e16" opacity="0.65"/>
  <text x="58" y="436" font-family="system-ui,sans-serif" font-size="12" fill="#f4f4f5" opacity="0.8">"All right. Let's say you're right about that. How does it hold up if you scale…</text>

  <!-- NPC State variables -->
  <rect x="32" y="464" width="836" height="78" rx="6" fill="#0c0a09" stroke="#27272a" stroke-width="1"/>
  <text x="46" y="482" font-family="system-ui,sans-serif" font-size="11" fill="#71717a">▾  NPC state variables</text>

  <!-- Meters row -->
  <!-- credibility 58 / 100 -->
  <rect x="46" y="492" width="150" height="44" rx="4" fill="#18181b"/>
  <text x="121" y="508" font-family="system-ui,sans-serif" font-size="10" fill="#a1a1aa" text-anchor="middle">credibility</text>
  <text x="121" y="522" font-family="system-ui,sans-serif" font-size="13" font-weight="600" fill="#f4f4f5" text-anchor="middle">58<tspan font-size="10" font-weight="400" fill="#71717a"> / 100</tspan></text>
  <rect x="56" y="527" width="130" height="4" rx="2" fill="#27272a"/>
  <rect x="56" y="527" width="75" height="4" rx="2" fill="#22c55e"/>

  <!-- composure 66 / 100 -->
  <rect x="206" y="492" width="150" height="44" rx="4" fill="#18181b"/>
  <text x="281" y="508" font-family="system-ui,sans-serif" font-size="10" fill="#a1a1aa" text-anchor="middle">composure</text>
  <text x="281" y="522" font-family="system-ui,sans-serif" font-size="13" font-weight="600" fill="#f4f4f5" text-anchor="middle">66<tspan font-size="10" font-weight="400" fill="#71717a"> / 100</tspan></text>
  <rect x="216" y="527" width="130" height="4" rx="2" fill="#27272a"/>
  <rect x="216" y="527" width="86" height="4" rx="2" fill="#22c55e"/>

  <!-- pressure_level 5 / 10 -->
  <rect x="366" y="492" width="150" height="44" rx="4" fill="#18181b"/>
  <text x="441" y="508" font-family="system-ui,sans-serif" font-size="10" fill="#a1a1aa" text-anchor="middle">pressure_level</text>
  <text x="441" y="522" font-family="system-ui,sans-serif" font-size="13" font-weight="600" fill="#f4f4f5" text-anchor="middle">5<tspan font-size="10" font-weight="400" fill="#71717a"> / 10</tspan></text>
  <rect x="376" y="527" width="130" height="4" rx="2" fill="#27272a"/>
  <rect x="376" y="527" width="65" height="4" rx="2" fill="#f97316"/>

  <!-- Event flags -->
  <rect x="726" y="492" width="126" height="44" rx="4" fill="#1c0a00" stroke="#451a03" stroke-width="1"/>
  <text x="739" y="510" font-family="system-ui,sans-serif" font-size="10" fill="#fbbf24">Event flags:</text>
  <text x="739" y="526" font-family="system-ui,sans-serif" font-size="10" fill="#fbbf24">grudging_respect</text>

  <!-- Text input area -->
  <rect x="32" y="552" width="836" height="52" rx="6" fill="#18181b" stroke="#27272a" stroke-width="1"/>
  <text x="48" y="582" font-family="system-ui,sans-serif" font-size="13" fill="#52525b">Type your response…</text>
  <rect x="806" y="562" width="50" height="32" rx="6" fill="rgba(79,70,229,0.15)" stroke="rgba(79,70,229,0.4)" stroke-width="1"/>
  <text x="831" y="582" font-family="system-ui,sans-serif" font-size="12" fill="#a5b4fc" text-anchor="middle">Send</text>
</svg>
