<!-- SPDX-License-Identifier: CC0-1.0 -->
<!-- Placeholder demo asset — shows the simulator loop (conversation → state change → event → debrief).
     Replace with an animated GIF or video recording at launch.
     Licensed CC0-1.0. No real people, voices, or private data. Fictional NPC: Victor Hargrove. -->
<svg xmlns="http://www.w3.org/2000/svg" width="820" height="500" viewBox="0 0 820 500">
  <!-- Background -->
  <rect width="820" height="500" fill="#09090b" rx="8"/>
  <rect x="1" y="1" width="818" height="498" fill="none" stroke="#27272a" stroke-width="1" rx="8"/>

  <!-- App header -->
  <rect x="0" y="0" width="820" height="44" fill="#18181b" rx="8"/>
  <rect x="0" y="30" width="820" height="14" fill="#18181b"/>
  <line x1="0" y1="44" x2="820" y2="44" stroke="#27272a" stroke-width="1"/>
  <text x="20" y="28" font-family="system-ui,sans-serif" font-size="13" font-weight="700" fill="#e8e8ea">Conversation Simulator</text>
  <rect x="218" y="10" width="78" height="24" rx="4" fill="#252528"/>
  <text x="258" y="26" font-family="system-ui,sans-serif" font-size="12" font-weight="600" fill="#e8e8ea" text-anchor="middle">Scenarios</text>
  <text x="315" y="26" font-family="system-ui,sans-serif" font-size="12" fill="#71717a">Workbench</text>
  <text x="406" y="26" font-family="system-ui,sans-serif" font-size="12" fill="#71717a">Settings</text>

  <!-- Page title + session info -->
  <text x="20" y="68" font-family="system-ui,sans-serif" font-size="16" font-weight="700" fill="#f4f4f5">Conversation</text>
  <text x="20" y="84" font-family="system-ui,sans-serif" font-size="10" fill="#71717a">Session: d4f9a2c1  ·  State: PlayerTurnListening  ·  The Executive Gauntlet  ·  Job Interview Basics</text>

  <!-- NPC panel -->
  <rect x="20" y="95" width="176" height="52" rx="6" fill="#18181b" stroke="#27272a" stroke-width="1"/>
  <circle cx="52" cy="121" r="18" fill="#27272a" stroke="#3f3f46" stroke-width="1.5"/>
  <circle cx="52" cy="115" r="7" fill="#52525b"/>
  <path d="M37 138 Q37 128 52 128 Q67 128 67 138" fill="#52525b"/>
  <text x="78" y="116" font-family="system-ui,sans-serif" font-size="12" font-weight="600" fill="#e4e4e7">Victor Hargrove</text>
  <text x="78" y="130" font-family="system-ui,sans-serif" font-size="10" fill="#6ee7b7">skeptical</text>
  <text x="78" y="143" font-family="system-ui,sans-serif" font-size="10" fill="#71717a">Listening</text>

  <!-- Scene card -->
  <rect x="206" y="95" width="594" height="52" rx="6" fill="#18181b" stroke="#27272a" stroke-width="1"/>
  <text x="222" y="115" font-family="system-ui,sans-serif" font-size="12" font-weight="600" fill="#e4e4e7">The Executive Gauntlet</text>
  <text x="222" y="130" font-family="system-ui,sans-serif" font-size="11" fill="#71717a">You are interviewing for a senior engineering role. Victor has a reputation for</text>
  <text x="222" y="143" font-family="system-ui,sans-serif" font-size="11" fill="#71717a">stress-testing candidates. Objective: earn his grudging respect.</text>

  <!-- Event banner — the scenario event fired -->
  <rect x="20" y="157" width="780" height="26" rx="4" fill="#1c0a00" stroke="#451a03" stroke-width="1"/>
  <text x="34" y="174" font-family="system-ui,sans-serif" font-size="11" fill="#fbbf24">Scenario event:  grudging_respect  triggered  ·  Turn 4</text>
  <text x="794" y="174" font-family="system-ui,sans-serif" font-size="13" fill="#fbbf24" text-anchor="end">×</text>

  <!-- Transcript -->
  <rect x="20" y="192" width="780" height="188" rx="6" fill="#0c0a09" stroke="#27272a" stroke-width="1"/>

  <!-- Turn 3 · NPC -->
  <text x="34" y="214" font-family="system-ui,sans-serif" font-size="10" fill="#6ee7b7" letter-spacing="0.05em">TURN 3  ·  NPC  (skeptical)</text>
  <rect x="34" y="220" width="748" height="42" rx="4" fill="#052e16"/>
  <text x="46" y="236" font-family="system-ui,sans-serif" font-size="12" fill="#f4f4f5">"That's a headline number. Walk me through the specific trade-off you made to get there.</text>
  <text x="46" y="252" font-family="system-ui,sans-serif" font-size="12" fill="#f4f4f5">What did you give up, and was it the right call in hindsight?"</text>

  <!-- Turn 4 · Player -->
  <text x="34" y="278" font-family="system-ui,sans-serif" font-size="10" fill="#a78bfa" letter-spacing="0.05em">TURN 4  ·  YOU</text>
  <rect x="34" y="284" width="748" height="42" rx="4" fill="#1e1b4b"/>
  <text x="46" y="300" font-family="system-ui,sans-serif" font-size="12" fill="#f4f4f5">"We moved from monolithic batch jobs to an event-driven pipeline. We traded strict ordering</text>
  <text x="46" y="316" font-family="system-ui,sans-serif" font-size="12" fill="#f4f4f5">for parallelism — acceptable for analytics, not for billing."</text>

  <!-- Turn 5 · NPC streaming -->
  <text x="34" y="342" font-family="system-ui,sans-serif" font-size="10" fill="#6ee7b7" letter-spacing="0.05em">TURN 5  ·  NPC  ·  Responding…</text>
  <rect x="34" y="348" width="748" height="24" rx="4" fill="#052e16" opacity="0.7"/>
  <text x="46" y="364" font-family="system-ui,sans-serif" font-size="12" fill="#f4f4f5" opacity="0.8">"All right. How does it hold up if you scale from a hundred thousand to ten million users…</text>

  <!-- State variables panel -->
  <rect x="20" y="390" width="780" height="78" rx="6" fill="#0c0a09" stroke="#27272a" stroke-width="1"/>
  <text x="34" y="408" font-family="system-ui,sans-serif" font-size="10" fill="#71717a">NPC state variables</text>

  <!-- trust 62 -->
  <text x="34" y="430" font-family="system-ui,sans-serif" font-size="10" fill="#a1a1aa">trust</text>
  <text x="34" y="448" font-family="system-ui,sans-serif" font-size="12" font-weight="600" fill="#f4f4f5">62</text>
  <rect x="34" y="453" width="88" height="4" rx="2" fill="#27272a"/>
  <rect x="34" y="453" width="55" height="4" rx="2" fill="#22c55e"/>

  <!-- patience 48 -->
  <text x="146" y="430" font-family="system-ui,sans-serif" font-size="10" fill="#a1a1aa">patience</text>
  <text x="146" y="448" font-family="system-ui,sans-serif" font-size="12" font-weight="600" fill="#f4f4f5">48</text>
  <rect x="146" y="453" width="88" height="4" rx="2" fill="#27272a"/>
  <rect x="146" y="453" width="42" height="4" rx="2" fill="#f97316"/>

  <!-- pressure 72 -->
  <text x="258" y="430" font-family="system-ui,sans-serif" font-size="10" fill="#a1a1aa">pressure</text>
  <text x="258" y="448" font-family="system-ui,sans-serif" font-size="12" font-weight="600" fill="#f4f4f5">72</text>
  <rect x="258" y="453" width="88" height="4" rx="2" fill="#27272a"/>
  <rect x="258" y="453" width="63" height="4" rx="2" fill="#22c55e"/>

  <!-- rapport 57 -->
  <text x="370" y="430" font-family="system-ui,sans-serif" font-size="10" fill="#a1a1aa">rapport</text>
  <text x="370" y="448" font-family="system-ui,sans-serif" font-size="12" font-weight="600" fill="#f4f4f5">57</text>
  <rect x="370" y="453" width="88" height="4" rx="2" fill="#27272a"/>
  <rect x="370" y="453" width="50" height="4" rx="2" fill="#22c55e"/>

  <!-- openness 38 -->
  <text x="482" y="430" font-family="system-ui,sans-serif" font-size="10" fill="#a1a1aa">openness</text>
  <text x="482" y="448" font-family="system-ui,sans-serif" font-size="12" font-weight="600" fill="#f4f4f5">38</text>
  <rect x="482" y="453" width="88" height="4" rx="2" fill="#27272a"/>
  <rect x="482" y="453" width="33" height="4" rx="2" fill="#f97316"/>

  <!-- obj. progress 35 -->
  <text x="594" y="430" font-family="system-ui,sans-serif" font-size="10" fill="#a1a1aa">obj. progress</text>
  <text x="594" y="448" font-family="system-ui,sans-serif" font-size="12" font-weight="600" fill="#f4f4f5">35</text>
  <rect x="594" y="453" width="88" height="4" rx="2" fill="#27272a"/>
  <rect x="594" y="453" width="31" height="4" rx="2" fill="#f97316"/>

  <!-- Event flags -->
  <rect x="700" y="420" width="86" height="40" rx="4" fill="#1c0a00" stroke="#451a03" stroke-width="1"/>
  <text x="712" y="436" font-family="system-ui,sans-serif" font-size="10" fill="#fbbf24">Event flags:</text>
  <text x="712" y="452" font-family="system-ui,sans-serif" font-size="10" fill="#fbbf24">grudging_respect</text>
</svg>
